<svg id="visual" viewBox="0 0 900 600" width="900" height="600" xmlns="http://www.w3.org/2000/svg" xmlns:xlink="http://www.w3.org/1999/xlink" version="1.1"><rect x="0" y="0" width="900" height="600" fill="#001220"></rect><path d="M0 258L21.5 245.3C43 232.7 86 207.3 128.8 194C171.7 180.7 214.3 179.3 257.2 189.5C300 199.7 343 221.3 385.8 214.2C428.7 207 471.3 171 514.2 147.2C557 123.3 600 111.7 642.8 132.5C685.7 153.3 728.3 206.7 771.2 222.7C814 238.7 857 217.3 878.5 206.7L900 196L900 601L878.5 601C857 601 814 601 771.2 601C728.3 601 685.7 601 642.8 601C600 601 557 601 514.2 601C471.3 601 428.7 601 385.8 601C343 601 300 601 257.2 601C214.3 601 171.7 601 128.8 601C86 601 43 601 21.5 601L0 601Z" fill="#fa7268"></path><path d="M0 328L21.5 312C43 296 86 264 128.8 245.2C171.7 226.3 214.3 220.7 257.2 227.5C300 234.3 343 253.7 385.8 264C428.7 274.3 471.3 275.7 514.2 275.3C557 275 600 273 642.8 285C685.7 297 728.3 323 771.2 322.7C814 322.3 857 295.7 878.5 282.3L900 269L900 601L878.5 601C857 601 814 601 771.2 601C728.3 601 685.7 601 642.8 601C600 601 557 601 514.2 601C471.3 601 428.7 601 385.8 601C343 601 300 601 257.2 601C214.3 601 171.7 601 128.8 601C86 601 43 601 21.5 601L0 601Z" fill="#ef5f67"></path><path d="M0 279L21.5 294.3C43 309.7 86 340.3 128.8 343.3C171.7 346.3 214.3 321.7 257.2 327.7C300 333.7 343 370.3 385.8 369.5C428.7 368.7 471.3 330.3 514.2 318.7C557 307 600 322 642.8 334.3C685.7 346.7 728.3 356.3 771.2 346.5C814 336.7 857 307.3 878.5 292.7L900 278L900 601L878.5 601C857 601 814 601 771.2 601C728.3 601 685.7 601 642.8 601C600 601 557 601 514.2 601C471.3 601 428.7 601 385.8 601C343 601 300 601 257.2 601C214.3 601 171.7 601 128.8 601C86 601 43 601 21.5 601L0 601Z" fill="#e34c67"></path><path d="M0 412L21.5 412.7C43 413.3 86 414.7 128.8 423.3C171.7 432 214.3 448 257.2 457.7C300 467.3 343 470.7 385.8 460.2C428.7 449.7 471.3 425.3 514.2 409.8C557 394.3 600 387.7 642.8 397C685.7 406.3 728.3 431.7 771.2 430.5C814 429.3 857 401.7 878.5 387.8L900 374L900 601L878.5 601C857 601 814 601 771.2 601C728.3 601 685.7 601 642.8 601C600 601 557 601 514.2 601C471.3 601 428.7 601 385.8 601C343 601 300 601 257.2 601C214.3 601 171.7 601 128.8 601C86 601 43 601 21.5 601L0 601Z" fill="#d53867"></path><path d="M0 518L21.5 515.7C43 513.3 86 508.7 128.8 500.5C171.7 492.3 214.3 480.7 257.2 474.8C300 469 343 469 385.8 468.3C428.7 467.7 471.3 466.3 514.2 474.2C557 482 600 499 642.8 511.3C685.7 523.7 728.3 531.3 771.2 533C814 534.7 857 530.3 878.5 528.2L900 526L900 601L878.5 601C857 601 814 601 771.2 601C728.3 601 685.7 601 642.8 601C600 601 557 601 514.2 601C471.3 601 428.7 601 385.8 601C343 601 300 601 257.2 601C214.3 601 171.7 601 128.8 601C86 601 43 601 21.5 601L0 601Z" fill="#c62368"></path></svg>